<svg width="184" height="78" viewBox="0 0 184 78" fill="none" xmlns="http://www.w3.org/2000/svg">
<path d="M56.0818 13.2963C45.5506 3.14788 31.993 8.29839 23.5317 18.4372C15.9655 27.5034 -3.00691 51.4614 9.38295 63.2419C18.7248 72.1244 38.6587 73.3455 50.7144 72.1263C53.8721 71.8069 62.992 67.2698 64.6468 70.7952" stroke="#64237B" stroke-opacity="0.49" stroke-width="9"/>
<path d="M31.8239 61.3318C31.6596 60.4138 31.2423 58.6627 32.0236 57.898C39.573 50.5084 54.4963 46.2886 64.1145 42.3918C67.6783 40.9479 72.8733 40.1312 76.0671 37.8032C76.951 37.1589 71.9251 37.4669 71.4551 37.5936C57.359 41.394 60.9963 65.1407 63.5687 75.2874" stroke="#64237B" stroke-opacity="0.49" stroke-width="9"/>
<path d="M84.113 60.134C82.9829 59.4113 83.3547 62.4324 83.5474 62.8292C86.8294 69.5874 101.269 58.0506 102.518 53.6487C103.953 48.5882 99.5009 47.1082 95.3003 47.2499C86.6246 47.5424 80.6583 55.731 75.9672 61.9309" stroke="#64237B" stroke-opacity="0.49" stroke-width="9"/>
<path d="M118.793 47.017C111.298 47.1335 121.686 60.3302 123.511 61.485C129.912 65.5343 138.733 56.8469 137.161 50.1082C134.424 38.3779 106.315 49.6568 108.611 59.4751" stroke="#64237B" stroke-opacity="0.49" stroke-width="9"/>
<path d="M178.329 5.33007C173.998 3.10377 171.318 31.2755 171.139 34.5555C171.113 35.0193 171.803 56.4398 174.463 54.8866C179.778 51.7833 165.576 31.9014 156.294 41.5665C152.989 45.0092 147.484 53.3106 149.157 58.3904C151.137 64.4043 162.124 55.8026 164.231 54.0281C168.001 50.8508 176.969 40.5398 178.689 48.6941" stroke="#64237B" stroke-opacity="0.49" stroke-width="9"/>
</svg>
